{"asset": {"version": "2.0", "generator": "prep_sponza.py"}, "scene": 0, "scenes": [{"nodes": [0]}], "nodes": [{"mesh": 0, "name": "sponza"}], "meshes": [{"primitives": [{"attributes": {"POSITION": 0, "TEXCOORD_0": 1}, "indices": 2, "material": 0}, {"attributes": {"POSITION": 0, "TEXCOORD_0": 1}, "indices": 3, "material": 1}, {"attributes": {"POSITION": 0, "TEXCOORD_0": 1}, "indices": 4, "material": 2}, {"attributes": {"POSITION": 0, "TEXCOORD_0": 1}, "indices": 5, "material": 3}, {"attributes": {"POSITION": 0, "TEXCOORD_0": 1}, "indices": 6, "material": 4}, {"attributes": {"POSITION": 0, "TEXCOORD_0": 1}, "indices": 7, "material": 5}, {"attributes": {"POSITION": 0, "TEXCOORD_0": 1}, "indices": 8, "material": 6}, {"attributes": {"POSITION": 0, "TEXCOORD_0": 1}, "indices": 9, "material": 7}, {"attributes": {"POSITION": 0, "TEXCOORD_0": 1}, "indices": 10, "material": 8}, {"attributes": {"POSITION": 0, "TEXCOORD_0": 1}, "indices": 11, "material": 9}, {"attributes": {"POSITION": 0, "TEXCOORD_0": 1}, "indices": 12, "material": 10}, {"attributes": {"POSITION": 0, "TEXCOORD_0": 1}, "indices": 13, "material": 11}, {"attributes": {"POSITION": 0, "TEXCOORD_0": 1}, "indices": 14, "material": 12}, {"attributes": {"POSITION": 0, "TEXCOORD_0": 1}, "indices": 15, "material": 13}, {"attributes": {"POSITION": 0, "TEXCOORD_0": 1}, "indices": 16, "material": 14}, {"attributes": {"POSITION": 0, "TEXCOORD_0": 1}, "indices": 17, "material": 15}, {"attributes": {"POSITION": 0, "TEXCOORD_0": 1}, "indices": 18, "material": 16}, {"attributes": {"POSITION": 0, "TEXCOORD_0": 1}, "indices": 19, "material": 17}, {"attributes": {"POSITION": 0, "TEXCOORD_0": 1}, "indices": 20, "material": 18}, {"attributes": {"POSITION": 0, "TEXCOORD_0": 1}, "indices": 21, "material": 19}, {"attributes": {"POSITION": 0, "TEXCOORD_0": 1}, "indices": 22, "material": 20}, {"attributes": {"POSITION": 0, "TEXCOORD_0": 1}, "indices": 23, "material": 21}, {"attributes": {"POSITION": 0, "TEXCOORD_0": 1}, "indices": 24, "material": 22}, {"attributes": {"POSITION": 0, "TEXCOORD_0": 1}, "indices": 25, "material": 23}, {"attributes": {"POSITION": 0, "TEXCOORD_0": 1}, "indices": 26, "material": 24}]}], "materials": [{"name": "column_b", "pbrMetallicRoughness": {"baseColorFactor": [1.0, 1.0, 1.0, 1.0], "metallicFactor": 0.0, "roughnessFactor": 1.0, "baseColorTexture": {"index": 0}}, "normalTexture": {"index": 1}}, {"name": "fabric_c", "pbrMetallicRoughness": {"baseColorFactor": [1.0, 1.0, 1.0, 1.0], "metallicFactor": 0.0, "roughnessFactor": 1.0, "baseColorTexture": {"index": 2}}, "normalTexture": {"index": 3}}, {"name": "fabric_g", "pbrMetallicRoughness": {"baseColorFactor": [1.0, 1.0, 1.0, 1.0], "metallicFactor": 0.0, "roughnessFactor": 1.0, "baseColorTexture": {"index": 4}}, "normalTexture": {"index": 3}}, {"name": "flagpole", "pbrMetallicRoughness": {"baseColorFactor": [1.0, 1.0, 1.0, 1.0], "metallicFactor": 0.0, "roughnessFactor": 1.0, "baseColorTexture": {"index": 5}}, "normalTexture": {"index": 6}}, {"name": "column_c", "pbrMetallicRoughness": {"baseColorFactor": [1.0, 1.0, 1.0, 1.0], "metallicFactor": 0.0, "roughnessFactor": 1.0, "baseColorTexture": {"index": 7}}, "normalTexture": {"index": 8}}, {"name": "fabric_f", "pbrMetallicRoughness": {"baseColorFactor": [1.0, 1.0, 1.0, 1.0], "metallicFactor": 0.0, "roughnessFactor": 1.0, "baseColorTexture": {"index": 9}}, "normalTexture": {"index": 3}}, {"name": "floor", "pbrMetallicRoughness": {"baseColorFactor": [1.0, 1.0, 1.0, 1.0], "metallicFactor": 0.0, "roughnessFactor": 1.0, "baseColorTexture": {"index": 10}}, "normalTexture": {"index": 11}}, {"name": "bricks", "pbrMetallicRoughness": {"baseColorFactor": [1.0, 1.0, 1.0, 1.0], "metallicFactor": 0.0, "roughnessFactor": 1.0, "baseColorTexture": {"index": 12}}, "normalTexture": {"index": 13}}, {"name": "column_a", "pbrMetallicRoughness": {"baseColorFactor": [1.0, 1.0, 1.0, 1.0], "metallicFactor": 0.0, "roughnessFactor": 1.0, "baseColorTexture": {"index": 14}}, "normalTexture": {"index": 15}}, {"name": "details", "pbrMetallicRoughness": {"baseColorFactor": [1.0, 1.0, 1.0, 1.0], "metallicFactor": 0.0, "roughnessFactor": 1.0, "baseColorTexture": {"index": 16}}, "normalTexture": {"index": 17}}, {"name": "vase_hanging", "pbrMetallicRoughness": {"baseColorFactor": [1.0, 1.0, 1.0, 1.0], "metallicFactor": 0.0, "roughnessFactor": 1.0, "baseColorTexture": {"index": 18}}, "normalTexture": {"index": 19}}, {"name": "chain", "pbrMetallicRoughness": {"baseColorFactor": [1.0, 1.0, 1.0, 1.0], "metallicFactor": 0.0, "roughnessFactor": 1.0, "baseColorTexture": {"index": 20}}, "alphaMode": "MASK", "alphaCutoff": 0.5, "normalTexture": {"index": 21}}, {"name": "arch", "pbrMetallicRoughness": {"baseColorFactor": [1.0, 1.0, 1.0, 1.0], "metallicFactor": 0.0, "roughnessFactor": 1.0, "baseColorTexture": {"index": 22}}, "normalTexture": {"index": 23}}, {"name": "ceiling", "pbrMetallicRoughness": {"baseColorFactor": [1.0, 1.0, 1.0, 1.0], "metallicFactor": 0.0, "roughnessFactor": 1.0, "baseColorTexture": {"index": 24}}, "normalTexture": {"index": 25}}, {"name": "fabric_e", "pbrMetallicRoughness": {"baseColorFactor": [1.0, 1.0, 1.0, 1.0], "metallicFactor": 0.0, "roughnessFactor": 1.0, "baseColorTexture": {"index": 26}}, "normalTexture": {"index": 27}}, {"name": "fabric_d", "pbrMetallicRoughness": {"baseColorFactor": [1.0, 1.0, 1.0, 1.0], "metallicFactor": 0.0, "roughnessFactor": 1.0, "baseColorTexture": {"index": 28}}, "normalTexture": {"index": 27}}, {"name": "leaf", "pbrMetallicRoughness": {"baseColorFactor": [1.0, 1.0, 1.0, 1.0], "metallicFactor": 0.0, "roughnessFactor": 1.0, "baseColorTexture": {"index": 29}}, "alphaMode": "MASK", "alphaCutoff": 0.5, "normalTexture": {"index": 30}}, {"name": "vase_round", "pbrMetallicRoughness": {"baseColorFactor": [1.0, 1.0, 1.0, 1.0], "metallicFactor": 0.0, "roughnessFactor": 1.0, "baseColorTexture": {"index": 31}}, "normalTexture": {"index": 32}}, {"name": "Material__57", "pbrMetallicRoughness": {"baseColorFactor": [1.0, 1.0, 1.0, 1.0], "metallicFactor": 0.0, "roughnessFactor": 1.0, "baseColorTexture": {"index": 33}}, "alphaMode": "MASK", "alphaCutoff": 0.5}, {"name": "Material__298", "pbrMetallicRoughness": {"baseColorFactor": [1.0, 1.0, 1.0, 1.0], "metallicFactor": 0.0, "roughnessFactor": 1.0, "baseColorTexture": {"index": 34}}, "normalTexture": {"index": 35}}, {"name": "Material__47", "pbrMetallicRoughness": {"baseColorFactor": [0.4704, 0.4704, 0.4704, 1.0], "metallicFactor": 0.0, "roughnessFactor": 1.0}}, {"name": "fabric_a", "pbrMetallicRoughness": {"baseColorFactor": [1.0, 1.0, 1.0, 1.0], "metallicFactor": 0.0, "roughnessFactor": 1.0, "baseColorTexture": {"index": 36}}, "normalTexture": {"index": 27}}, {"name": "Material__25", "pbrMetallicRoughness": {"baseColorFactor": [1.0, 1.0, 1.0, 1.0], "metallicFactor": 0.0, "roughnessFactor": 1.0, "baseColorTexture": {"index": 37}}, "alphaMode": "MASK", "alphaCutoff": 0.5, "normalTexture": {"index": 38}}, {"name": "vase", "pbrMetallicRoughness": {"baseColorFactor": [1.0, 1.0, 1.0, 1.0], "metallicFactor": 0.0, "roughnessFactor": 1.0, "baseColorTexture": {"index": 39}}, "normalTexture": {"index": 40}}, {"name": "roof", "pbrMetallicRoughness": {"baseColorFactor": [1.0, 1.0, 1.0, 1.0], "metallicFactor": 0.0, "roughnessFactor": 1.0, "baseColorTexture": {"index": 41}}, "normalTexture": {"index": 42}}], "textures": [{"source": 0}, {"source": 1}, {"source": 2}, {"source": 3}, {"source": 4}, {"source": 5}, {"source": 6}, {"source": 7}, {"source": 8}, {"source": 9}, {"source": 10}, {"source": 11}, {"source": 12}, {"source": 13}, {"source": 14}, {"source": 15}, {"source": 16}, {"source": 17}, {"source": 18}, {"source": 19}, {"source": 20}, {"source": 21}, {"source": 22}, {"source": 23}, {"source": 24}, {"source": 25}, {"source": 26}, {"source": 27}, {"source": 28}, {"source": 29}, {"source": 30}, {"source": 31}, {"source": 32}, {"source": 33}, {"source": 34}, {"source": 35}, {"source": 36}, {"source": 37}, {"source": 38}, {"source": 39}, {"source": 40}, {"source": 41}, {"source": 42}], "images": [{"uri": "textures/sponza_column_b_diff.jpg"}, {"uri": "textures/sponza_column_b_ddn.jpg"}, {"uri": "textures/sponza_curtain_diff.jpg"}, {"uri": "textures/sponza_curtain_ddn.jpg"}, {"uri": "textures/sponza_curtain_blue_diff.jpg"}, {"uri": "textures/sponza_flagpole_diff.jpg"}, {"uri": "textures/sponza_flagpole_ddn.jpg"}, {"uri": "textures/sponza_column_c_diff.jpg"}, {"uri": "textures/sponza_column_c_ddn.jpg"}, {"uri": "textures/sponza_curtain_green_diff.jpg"}, {"uri": "textures/sponza_floor_a_diff.jpg"}, {"uri": "textures/sponza_floor_a_ddn.jpg"}, {"uri": "textures/spnza_bricks_a_diff.jpg"}, {"uri": "textures/spnza_bricks_a_ddn.jpg"}, {"uri": "textures/sponza_column_a_diff.jpg"}, {"uri": "textures/sponza_column_a_ddn.jpg"}, {"uri": "textures/sponza_details_diff.jpg"}, {"uri": "textures/sponza_details_ddn.jpg"}, {"uri": "textures/vase_hanging.jpg"}, {"uri": "textures/vase_hanging_ddn.jpg"}, {"uri": "textures/chain_texture.png"}, {"uri": "textures/chain_texture_ddn.jpg"}, {"uri": "textures/sponza_arch_diff.jpg"}, {"uri": "textures/sponza_arch_ddn.jpg"}, {"uri": "textures/sponza_ceiling_a_diff.jpg"}, {"uri": "textures/sponza_ceiling_a_ddn.jpg"}, {"uri": "textures/sponza_fabric_green_diff.jpg"}, {"uri": "textures/sponza_fabric_ddn.jpg"}, {"uri": "textures/sponza_fabric_blue_diff.jpg"}, {"uri": "textures/sponza_thorn_diff.png"}, {"uri": "textures/sponza_thorn_ddn.jpg"}, {"uri": "textures/vase_round.jpg"}, {"uri": "textures/vase_round_ddn.jpg"}, {"uri": "textures/vase_plant.png"}, {"uri": "textures/background.jpg"}, {"uri": "textures/background_ddn.jpg"}, {"uri": "textures/sponza_fabric_diff.jpg"}, {"uri": "textures/lion.png"}, {"uri": "textures/lion_ddn.jpg"}, {"uri": "textures/vase_dif.jpg"}, {"uri": "textures/vase_ddn.jpg"}, {"uri": "textures/sponza_roof_diff.jpg"}, {"uri": "textures/sponza_roof_ddn.jpg"}], "accessors": [{"bufferView": 0, "componentType": 5126, "count": 161383, "type": "VEC3", "min": [-1920.945923, -126.442665, -1182.806885], "max": [1799.908081, 1429.43335, 1105.42627]}, {"bufferView": 1, "componentType": 5126, "count": 161383, "type": "VEC2"}, {"bufferView": 2, "componentType": 5125, "count": 69624, "type": "SCALAR"}, {"bufferView": 3, "componentType": 5125, "count": 56832, "type": "SCALAR"}, {"bufferView": 4, "componentType": 5125, "count": 43008, "type": "SCALAR"}, {"bufferView": 5, "componentType": 5125, "count": 49488, "type": "SCALAR"}, {"bufferView": 6, "componentType": 5125, "count": 21264, "type": "SCALAR"}, {"bufferView": 7, "componentType": 5125, "count": 43008, "type": "SCALAR"}, {"bufferView": 8, "componentType": 5125, "count": 63, "type": "SCALAR"}, {"bufferView": 9, "componentType": 5125, "count": 2388, "type": "SCALAR"}, {"bufferView": 10, "componentType": 5125, "count": 8448, "type": "SCALAR"}, {"bufferView": 11, "componentType": 5125, "count": 2640, "type": "SCALAR"}, {"bufferView": 12, "componentType": 5125, "count": 59484, "type": "SCALAR"}, {"bufferView": 13, "componentType": 5125, "count": 96, "type": "SCALAR"}, {"bufferView": 14, "componentType": 5125, "count": 30504, "type": "SCALAR"}, {"bufferView": 15, "componentType": 5125, "count": 17628, "type": "SCALAR"}, {"bufferView": 16, "componentType": 5125, "count": 49536, "type": "SCALAR"}, {"bufferView": 17, "componentType": 5125, "count": 49536, "type": "SCALAR"}, {"bufferView": 18, "componentType": 5125, "count": 94308, "type": "SCALAR"}, {"bufferView": 19, "componentType": 5125, "count": 53064, "type": "SCALAR"}, {"bufferView": 20, "componentType": 5125, "count": 10416, "type": "SCALAR"}, {"bufferView": 21, "componentType": 5125, "count": 12258, "type": "SCALAR"}, {"bufferView": 22, "componentType": 5125, "count": 54, "type": "SCALAR"}, {"bufferView": 23, "componentType": 5125, "count": 33024, "type": "SCALAR"}, {"bufferView": 24, "componentType": 5125, "count": 9126, "type": "SCALAR"}, {"bufferView": 25, "componentType": 5125, "count": 27552, "type": "SCALAR"}, {"bufferView": 26, "componentType": 5125, "count": 43452, "type": "SCALAR"}], "bufferViews": [{"buffer": 0, "byteOffset": 0, "byteLength": 1936596}, {"buffer": 0, "byteOffset": 1936596, "byteLength": 1291064}, {"buffer": 0, "byteOffset": 3227660, "byteLength": 278496}, {"buffer": 0, "byteOffset": 3506156, "byteLength": 227328}, {"buffer": 0, "byteOffset": 3733484, "byteLength": 172032}, {"buffer": 0, "byteOffset": 3905516, "byteLength": 197952}, {"buffer": 0, "byteOffset": 4103468, "byteLength": 85056}, {"buffer": 0, "byteOffset": 4188524, "byteLength": 172032}, {"buffer": 0, "byteOffset": 4360556, "byteLength": 252}, {"buffer": 0, "byteOffset": 4360808, "byteLength": 9552}, {"buffer": 0, "byteOffset": 4370360, "byteLength": 33792}, {"buffer": 0, "byteOffset": 4404152, "byteLength": 10560}, {"buffer": 0, "byteOffset": 4414712, "byteLength": 237936}, {"buffer": 0, "byteOffset": 4652648, "byteLength": 384}, {"buffer": 0, "byteOffset": 4653032, "byteLength": 122016}, {"buffer": 0, "byteOffset": 4775048, "byteLength": 70512}, {"buffer": 0, "byteOffset": 4845560, "byteLength": 198144}, {"buffer": 0, "byteOffset": 5043704, "byteLength": 198144}, {"buffer": 0, "byteOffset": 5241848, "byteLength": 377232}, {"buffer": 0, "byteOffset": 5619080, "byteLength": 212256}, {"buffer": 0, "byteOffset": 5831336, "byteLength": 41664}, {"buffer": 0, "byteOffset": 5873000, "byteLength": 49032}, {"buffer": 0, "byteOffset": 5922032, "byteLength": 216}, {"buffer": 0, "byteOffset": 5922248, "byteLength": 132096}, {"buffer": 0, "byteOffset": 6054344, "byteLength": 36504}, {"buffer": 0, "byteOffset": 6090848, "byteLength": 110208}, {"buffer": 0, "byteOffset": 6201056, "byteLength": 173808}], "buffers": [{"uri": "sponza.bin", "byteLength": 6374864}]}