# navmesh 章のレベル。描画 (drawModel) と mitiru_navbake の焼きが同じこのファイルを読む
mtllib level.mtl
vn 0 1 0
vn 0 -1 0
vn 1 0 0
vn -1 0 0
vn 0 0 1
vn 0 0 -1
o floor
usemtl floor
v -8 -0.2 -8
v 8 -0.2 -8
v 8 -0.2 8
v -8 -0.2 8
v -8 0 -8
v 8 0 -8
v 8 0 8
v -8 0 8
f 5//1 8//1 7//1
f 5//1 7//1 6//1
f 1//2 2//2 3//2
f 1//2 3//2 4//2
f 2//3 6//3 7//3
f 2//3 7//3 3//3
f 1//4 4//4 8//4
f 1//4 8//4 5//4
f 4//5 3//5 7//5
f 4//5 7//5 8//5
f 1//6 5//6 6//6
f 1//6 6//6 2//6
o wall_w
usemtl wall
v -4 0 -8
v -3.4 0 -8
v -3.4 0 3
v -4 0 3
v -4 1.2 -8
v -3.4 1.2 -8
v -3.4 1.2 3
v -4 1.2 3
f 13//1 16//1 15//1
f 13//1 15//1 14//1
f 9//2 10//2 11//2
f 9//2 11//2 12//2
f 10//3 14//3 15//3
f 10//3 15//3 11//3
f 9//4 12//4 16//4
f 9//4 16//4 13//4
f 12//5 11//5 15//5
f 12//5 15//5 16//5
f 9//6 13//6 14//6
f 9//6 14//6 10//6
o wall_e
usemtl wall
v 1.4 0 -3
v 2 0 -3
v 2 0 8
v 1.4 0 8
v 1.4 1.2 -3
v 2 1.2 -3
v 2 1.2 8
v 1.4 1.2 8
f 21//1 24//1 23//1
f 21//1 23//1 22//1
f 17//2 18//2 19//2
f 17//2 19//2 20//2
f 18//3 22//3 23//3
f 18//3 23//3 19//3
f 17//4 20//4 24//4
f 17//4 24//4 21//4
f 20//5 19//5 23//5
f 20//5 23//5 24//5
f 17//6 21//6 22//6
f 17//6 22//6 18//6
o block
usemtl block
v 4 0 -6
v 6 0 -6
v 6 0 -4
v 4 0 -4
v 4 1.2 -6
v 6 1.2 -6
v 6 1.2 -4
v 4 1.2 -4
f 29//1 32//1 31//1
f 29//1 31//1 30//1
f 25//2 26//2 27//2
f 25//2 27//2 28//2
f 26//3 30//3 31//3
f 26//3 31//3 27//3
f 25//4 28//4 32//4
f 25//4 32//4 29//4
f 28//5 27//5 31//5
f 28//5 31//5 32//5
f 25//6 29//6 30//6
f 25//6 30//6 26//6
